<?xml version="1.0" encoding="UTF-8"?>
<svg width="118px" height="116px" viewBox="0 0 118 116" version="1.1" xmlns="http://www.w3.org/2000/svg" xmlns:xlink="http://www.w3.org/1999/xlink">
    <!-- Generator: Sketch 54.1 (76490) - https://sketchapp.com -->
    <title>产业链</title>
    <desc>Created with Sketch.</desc>
    <g id="数字政府" stroke="none" stroke-width="1" fill="none" fill-rule="evenodd">
        <g id="产业链" transform="translate(-19.000000, -17.000000)">
            <path d="M116.477959,35.5849501 C112.568965,31.6897573 112.568965,25.3581215 116.477959,21.4491185 C120.387662,17.5394073 126.704942,17.5394073 130.613936,21.4491185 C134.523639,25.3581215 134.523639,31.6752389 130.613936,35.5849501 C126.704942,39.4941301 120.387662,39.4941301 116.477959,35.5849501 Z M120.005225,24.9902028 C118.064538,26.9447043 118.064538,30.1033515 120.005225,32.057853 C121.959722,34.0123545 125.118363,34.0123545 127.07286,32.057853 C129.028065,30.1033515 129.028065,26.9447043 127.07286,24.9902028 C125.118363,23.0349931 121.959722,23.0349931 120.005225,24.9902028 Z" id="形状结合" fill="#CDDC39"></path>
            <g id="编组-48">
                <path d="M119.477959,111.444162 C123.387662,107.547969 129.704942,107.534156 133.613936,111.444162 C137.523639,115.354877 137.523639,121.673616 133.613936,125.583799 C129.704942,129.494514 123.387662,129.494514 119.477959,125.583799 C115.568965,121.673616 115.568965,115.354877 119.477959,111.444162 Z M130.07286,122.056328 C132.028065,120.101148 132.028065,116.941867 130.07286,114.986155 C128.118363,113.031152 124.959722,113.031152 123.005225,114.986155 C121.050728,116.941867 121.050728,120.101148 123.005225,122.056328 C124.959722,124.011331 128.118363,124.011331 130.07286,122.056328 Z" id="形状结合" fill="#FFEB3B"></path>
                <path d="M30.7997892,44.2432835 C21.2682322,48.9803536 13.9733494,55.2668118 10,62.4549808 M10.4600041,88.348242 C19.6647309,103.876352 44.4758565,115 73.6387447,115 C82.8703415,115 91.6658667,113.885347 99.6683185,111.869175 M115.476735,106.244554 C124.144043,102.102494 131.050417,96.7016943 135.41845,90.5062791 M138.540712,65.0296449 C131.120279,47.762333 104.875934,35 73.6387447,35 C65.2508012,35 57.2228681,35.9202316 49.8227429,37.6008159" id="形状" stroke="#DDDDDD" stroke-width="3" transform="translate(75.319372, 75.000000) scale(-1, 1) rotate(44.000000) translate(-75.319372, -75.000000) "></path>
                <path d="M34.2301296,44.9533295 C24.6068256,49.8954461 17.241725,56.4540169 13.2301296,63.9533295 M14.377265,89.9912413 C23.5604974,105.139618 48.3136854,115.991241 77.408474,115.991241 C86.6185136,115.991241 95.3935,114.903846 103.377265,112.93698 M118.941597,107.051871 C127.636458,102.924029 134.564787,97.5417683 138.946706,91.3676196 M142.078893,65.9784364 C134.634871,48.7703963 108.307096,36.0518714 76.970605,36.0518714 C68.5559966,36.0518714 60.502543,36.9689442 53.0788931,38.6437597" id="形状复制-9" stroke="#DDDDDD" stroke-width="3" transform="translate(77.654511, 76.021556) scale(1, -1) rotate(-45.000000) translate(-77.654511, -76.021556) "></path>
                <g id="编组-47" transform="translate(45.546213, 48.516835)" fill="#50AFC6">
                    <path d="M25.4562053,6.00290408 L25.4562053,3.20051352 C28.9570562,5.031749 31.9722798,6.57340254 34.9343619,8.20683055 C35.2599323,8.38651945 35.4233106,9.0840842 35.4403127,9.54973132 C35.5036554,11.1618109 35.5156755,12.7789322 35.450514,14.3904604 C35.404806,15.5142053 35.8162568,15.9351862 36.9554766,15.9080872 C38.0032804,15.8835089 38.7573037,15.817967 38.7091443,14.4547419 C38.6337815,12.3247077 38.6251618,10.1869534 38.7162615,8.05754933 C38.7687703,6.8285592 38.268355,6.20079031 37.2022838,5.67086168 C33.8917773,4.02427801 30.6130607,2.31609123 27.3658969,0.546143764 C26.1969433,-0.0942293401 25.1442365,-0.14716706 23.9036368,0.260579426 C16.5004481,2.67704455 9.08523935,5.05727254 1.6576151,7.40086952 C0.480358081,7.77017314 -0.00432037998,8.25543557 2.89943643e-05,9.55619098 C0.0485047484,23.0450687 0.0497700209,36.5343402 0.00311309617,50.0238481 C2.89943643e-05,51.4322908 0.379689834,51.9258248 1.85254615,51.9107785 C9.02774853,51.8439761 16.2045325,51.8268029 23.3785487,51.9193651 C25.0972633,51.94158 25.4951124,51.3839221 25.4889442,49.7567174 C25.4321651,35.172927 25.4562053,20.5879549 25.4562053,6.00290408 Z M21.2749017,6.57229654 C21.3257055,6.56924398 21.3796845,6.61362355 21.7920682,6.78973293 C21.7920682,8.58933605 21.8928819,10.4638444 21.7182439,12.3136191 C21.6764102,12.7581974 20.7747228,13.3231563 20.1725394,13.4833768 C16.9098263,14.3510873 16.8990305,14.3138303 16.8990305,11.1120052 C16.8943471,7.18046096 17.22862,6.83340806 21.2749017,6.57229654 Z M5.02037318,33.0013116 C4.27754057,32.9922268 3.27643493,33.2921796 3.28786435,31.9912714 C3.29349969,31.3700904 3.28135593,30.7489094 3.28135593,30.1277284 C3.28135593,27.1653164 3.28135593,27.1653164 6.72224483,27.3324141 C6.72224483,28.9363033 6.70827554,30.4464719 6.72661023,31.956097 C6.7414526,33.2454357 5.77812752,33.010707 5.02037318,33.0013116 Z M3.34808734,19.831422 C3.36865774,19.5358758 4.02053217,19.1716211 4.44844436,19.036344 C5.04147787,18.8530702 5.69797665,18.8530702 6.71206556,18.7306329 C6.71206556,20.5111705 6.76684023,22.1173764 6.66502472,23.7142581 C6.64445432,24.0298283 6.06082897,24.4842678 5.6659251,24.5705547 C5.00065599,24.7123282 4.27933652,24.6096093 3.29642214,24.6096093 C3.29642214,23.0130333 3.2390961,21.4166866 3.34808734,19.831422 Z M6.50308661,15.5518304 C6.34447003,16.1853333 4.66821189,16.4544822 3.23318149,17.0875949 C3.23318149,14.9379147 2.90393071,13.3144368 3.35534729,11.937165 C3.63111571,11.1025612 5.11055558,10.6480748 6.05039663,10.0225316 L6.63918011,10.4294936 C6.63862301,12.1480985 6.90874076,13.9310837 6.50308661,15.5518304 Z M13.9445366,30.7295761 C13.9445366,33.0663907 12.8965857,33.8250946 10.5554777,33.0751078 C10.1945929,32.9598837 9.80006351,32.3658535 9.76755943,31.9662145 C9.66540377,30.70604 9.63387726,29.4229633 9.7761946,28.1701588 C9.82613194,27.7262211 10.3906764,27.0886054 10.8332695,26.9808305 C13.8741519,26.2428891 13.9464103,26.3425809 13.9457586,30.0371221 C13.944781,30.2683627 13.9445366,30.4992864 13.9445366,30.7302101 L13.9445366,30.7295761 Z M13.8773742,23.1063761 C13.8518044,23.4946496 13.2166568,24.1425731 12.8317983,24.1634764 C9.31963697,24.3596154 9.70826535,24.8749107 9.68138427,21.6494695 L9.68138427,21.2977968 C9.68138427,17.8526703 9.903563,17.6515657 13.9273665,17.7679357 C13.9273665,19.6228067 13.9923564,21.3700375 13.8780299,23.1063761 L13.8773742,23.1063761 Z M13.846311,13.9308418 C13.63663,15.7340542 11.8309894,15.1248916 10.7255828,15.3958487 C9.53722822,15.6886459 9.74017934,14.5946043 9.69679986,13.8967463 C9.6648531,13.3839781 9.68828613,12.8681461 9.68828613,12.3534924 C9.68828613,9.19627981 10.1196485,8.79491126 13.8884743,8.70810127 C13.8884743,10.5293827 14.0420458,12.2491633 13.846311,13.9308418 Z M17.7746994,33.0319788 C17.4184873,32.9238493 17.0250778,32.3390272 16.9804724,31.938643 C16.8606843,30.8666516 16.9059201,29.773863 16.9142737,28.6899875 C16.930587,26.4818932 17.0580195,26.3593777 19.2436804,26.3044138 C21.8105355,26.241866 21.8105355,26.241866 21.8210169,28.786233 L21.8210169,30.1565775 C21.8184951,33.0277569 20.6314891,33.9020972 17.7746994,33.0319788 Z M21.8170689,20.1341452 C21.8170689,23.3974364 21.659147,23.4941926 18.2980172,23.495443 C17.1944592,23.495443 16.8689822,23.0674653 16.9014352,22.1005295 C16.9202279,21.5324195 16.8906175,20.9627464 16.9014352,20.3936986 C16.9526019,16.7273611 16.4819158,17.1594029 20.2050815,16.4886752 C21.4052877,16.2721853 21.8114627,16.6517069 21.8102783,17.7440036 L21.8102783,19.7922163 L21.8210169,19.7922163 C21.8185692,19.906401 21.8170689,20.0205857 21.8170689,20.1341452 Z" id="Fill-1"></path>
                    <path d="M63.2733446,31.4083584 C61.9942143,30.4085767 61.571451,29.1090393 61.6557627,27.4932784 C61.7888148,24.9411981 61.6479739,22.3772332 61.711007,19.8202592 C61.7373444,18.7552288 61.3421229,18.1565716 60.3375279,17.7277941 C57.7598356,16.6278867 55.2436508,15.3896365 52.6503006,14.326082 C51.974361,14.0490855 51.0371351,13.9999159 50.3376685,14.2092556 C44.9584161,15.8165497 39.6202757,17.5427673 34.2450381,19.1539452 C33.0418687,19.5143669 32.5535028,20.0456781 32.5600871,21.3034253 C32.6064987,30.7415007 32.6064987,40.1798091 32.5600871,49.6181952 C32.5515756,51.1010506 33.1664093,51.4205364 34.5512103,51.4004957 C39.3690265,51.3383541 44.1921424,51.297962 49.0087542,51.4165749 C50.8304508,51.4615499 51.2928006,50.8834771 51.2805954,49.1870098 C51.2074449,39.464947 51.2422938,29.7422628 51.2516885,20.0195786 C51.2516885,19.2403998 51.3436285,18.4612211 51.4219983,17.2232039 C53.8039267,18.2703685 55.8468414,19.1062515 57.8103424,20.0878567 C58.1792265,20.2745147 58.3887212,21.0369929 58.4071895,21.542826 C58.4752813,23.5311261 58.5916316,25.5358938 58.3987584,27.5084254 C58.1578676,29.9716432 58.8124482,31.9545836 60.8233244,33.519932 C62.3650256,34.7205866 62.7708463,36.298441 62.7065285,38.2036266 C62.5723523,42.1806152 62.6971337,46.1628082 62.6482329,50.1422048 C62.6334583,51.3286444 62.9430832,51.9187572 64.3119051,51.92 C65.7105172,51.92 65.9538972,51.2755133 65.9404073,50.1179695 C65.8933533,46.0787616 65.75725,42.0359028 65.9802346,38.0103661 C66.127981,35.288639 65.468984,33.1254878 63.2733446,31.4083584 Z M48.7592933,18.4837931 C48.7592933,19.9271299 48.8229023,21.2550346 48.717999,22.568004 C48.6882195,22.9391658 48.2269946,23.4449852 47.8488347,23.5905264 C45.572569,24.4687787 45.1063411,24.1224033 45.100147,21.6922144 C45.0923646,18.8161069 45.3820596,18.5424227 48.7592933,18.4837931 Z M35.0585607,22.0768559 C35.4911512,21.6795215 36.346337,21.5483183 36.9945032,21.590203 C37.2247117,21.6062423 37.5304836,22.4774589 37.5501541,22.9670764 C37.5835779,23.780673 37.6501057,24.7380155 37.2471808,25.372291 C36.970115,25.8087735 35.7164021,26.1469676 35.268459,25.9067578 C34.7527888,25.6299844 34.6440414,24.6691452 34.3992,24.0992551 C34.6466002,23.2607253 34.6415626,22.4592911 35.0598401,22.0751075 L35.0585607,22.0768559 Z M34.3992,29.5914324 C34.7888825,29.0477544 35.1025734,28.1520714 35.7293278,27.839413 C36.7200421,27.3488265 37.6911507,27.6417737 37.5648902,29.0214729 C37.4797231,29.9580885 37.3887527,30.949608 36.9840915,31.7718088 C36.8499102,32.0449694 35.4995493,32.1343867 35.1239828,31.8323014 C34.6804239,31.4738771 34.6871682,30.5947333 34.3992,29.5914324 Z M37.3577871,35.7998707 C37.3905267,36.8158609 37.678997,38.0655295 35.9542856,38.0561545 C34.2076975,38.0467794 34.6553394,36.7680559 34.5937075,36.1539525 C34.5298126,34.6516229 34.4393639,33.6286596 36.1024434,33.6528332 C37.8478245,33.6788664 37.3294983,34.9112571 37.3583906,35.7998707 L37.3577871,35.7998707 Z M42.4697154,37.1423851 C42.3886649,37.5522539 41.455515,38.0377072 40.9003629,38.0558965 C40.4407601,38.0711051 39.8406856,37.5245115 39.5268626,37.0775765 C39.3108073,36.7718754 39.4748097,36.2133595 39.4748097,35.7682587 C39.4748097,33.3309803 39.6327115,33.2178709 42.544903,33.7462752 C42.5458537,34.8529132 42.6894945,36.0309324 42.4703492,37.1433022 L42.4697154,37.1423851 Z M39.4199575,29.5688522 C39.4100924,27.0475216 39.4100924,27.0475216 42.5833949,26.9651724 C42.5833949,28.1797862 42.6063048,29.2960425 42.5773617,30.4117031 C42.5454835,31.6429207 41.4869007,31.4369732 40.6410291,31.5195458 C39.696425,31.6126168 39.3594624,31.1824799 39.4225664,30.3771552 C39.4429489,30.1115678 39.4212619,29.8381624 39.4199575,29.5688522 Z M39.8726452,24.9427996 C38.8852176,21.0662504 39.3661317,20.2136665 42.6052075,20.1148276 C43.3387468,24.9560412 42.9696615,25.190685 39.8713821,24.9427996 L39.8726452,24.9427996 Z M48.7752006,35.9716448 C48.7644337,37.9978747 48.5992886,38.1001644 46.5850876,38.0465043 C45.5268444,38.0183966 45.1226901,37.5455963 45.1285485,36.5586326 C45.1285485,36.3836782 45.1226901,36.2086439 45.1183358,36.0327312 C45.0360799,32.7111514 45.0732099,32.6789713 48.775834,32.9294652 C48.775834,34.0084177 48.7820091,34.9897118 48.7752006,35.9716448 Z M48.7083159,29.8300935 C48.672275,30.2020528 48.0539998,30.8124814 47.7261442,30.7976061 C46.813264,30.7561568 45.3839531,31.8314377 45.1868522,29.7804318 C44.8992228,26.7870928 45.2570737,26.0295385 47.3113255,25.840421 C47.6988616,25.8053247 48.0918233,25.8355401 48.7552077,25.8355401 C48.7539676,27.2758075 48.8320949,28.5626737 48.7083159,29.8300935 Z" id="Fill-3"></path>
                </g>
            </g>
            <path d="M38.6144935,35.5849501 C34.7048255,39.4941301 28.387601,39.4941301 24.4779331,35.5849501 C20.5689733,31.6752389 20.5689733,25.3443112 24.4779331,21.4491185 C28.387601,17.5394073 34.7048255,17.5394073 38.6144935,21.4491185 C42.5234532,25.3581215 42.5234532,31.6752389 38.6144935,35.5849501 Z M28.0189782,24.9902028 C26.0644983,26.9447043 26.0644983,30.1033515 28.0189782,32.057853 C29.9741663,34.0123545 33.1327785,34.0123545 35.0872584,32.057853 C37.0417383,30.1033515 37.0417383,26.9447043 35.0872584,24.9902028 C33.1327785,23.0349931 29.9741663,23.0349931 28.0189782,24.9902028 Z" id="形状结合" fill="#FEBA82"></path>
            <path d="M37.6144935,114.448581 C41.5234532,118.358283 41.5234532,124.675387 37.6144935,128.584558 C33.7048255,132.494261 27.3730827,132.494261 23.4779331,128.584558 C19.5689733,124.675387 19.5689733,118.358283 23.4779331,114.448581 C27.387601,110.539587 33.7048255,110.539587 37.6144935,114.448581 Z M34.0734483,125.058 C36.0279282,123.103326 36.0279282,119.944863 34.0734483,117.989657 C32.1182603,116.03516 28.959648,116.03516 27.0051681,117.989657 C25.0506883,119.944863 25.0506883,123.103326 27.0051681,125.058 C28.959648,127.012497 32.1182603,127.012497 34.0734483,125.058 Z" id="形状结合" fill="#E4EC94"></path>
        </g>
    </g>
</svg>