<?xml version="1.0" encoding="UTF-8"?>
<svg width="14px" height="11px" viewBox="0 0 14 11" version="1.1" xmlns="http://www.w3.org/2000/svg" xmlns:xlink="http://www.w3.org/1999/xlink">
    <!-- Generator: Sketch 54.1 (76490) - https://sketchapp.com -->
    <title>隐藏</title>
    <desc>Created with Sketch.</desc>
    <g id="页面2" stroke="none" stroke-width="1" fill="none" fill-rule="evenodd">
        <g id="气泡图-热力图-坐标图效果复制-2" transform="translate(-277.000000, -226.000000)" fill="#666666" fill-rule="nonzero">
            <g id="隐藏" transform="translate(276.000000, 223.000000)">
                <path d="M3.62,11.34 L4.27,10.69 L3.77,10.27 C3.17529284,9.7367215 2.62976127,9.1510281 2.14,8.52 C2.63071366,7.89285721 3.17619277,7.31056663 3.77,6.78 C4.90844786,5.65668339 6.4059385,4.96989099 8,4.84 C8.60015782,4.84553118 9.19388079,4.96427578 9.75,5.19 L10.45,4.49 C9.68411575,4.12519607 8.84826024,3.93073172 8,3.92 C7.05411379,3.93642558 6.12551618,4.17628474 5.29,4.62 C4.51177462,5.02136837 3.78904799,5.52223473 3.14,6.11 C2.39817912,6.75288954 1.72765631,7.47370156 1.14,8.26 C1.02799823,8.41891516 1.02799823,8.63108484 1.14,8.79 C1.72699672,9.57684875 2.39758262,10.2977286 3.14,10.94 L3.62,11.34 Z M12.86,6.11 C12.58,5.86333333 12.29,5.62666667 11.99,5.4 L13.49,3.9 C13.6793889,3.70898712 13.6793889,3.40101288 13.49,3.21 L13.49,3.21 C13.2989871,3.02061111 12.9910129,3.02061111 12.8,3.21 L3.41,12.68 C3.22061111,12.8710129 3.22061111,13.1789871 3.41,13.37 L3.41,13.37 C3.60101288,13.5593889 3.90898712,13.5593889 4.1,13.37 L5.1,12.37 L5.32,12.48 C6.15551618,12.9237153 7.08411379,13.1635744 8.03,13.18 C8.97588621,13.1635744 9.90448382,12.9237153 10.74,12.48 C11.5150136,12.0783761 12.2344009,11.5774943 12.88,10.99 C13.6219286,10.3472221 14.2924628,9.62639785 14.88,8.84 C14.9920018,8.68108484 14.9920018,8.46891516 14.88,8.31 C14.2839039,7.50622393 13.6033479,6.76867558 12.85,6.11 L12.86,6.11 Z M10.07,8.52 C10.07,9.66322943 9.14322943,10.59 8,10.59 C7.65168906,10.5962671 7.30752648,10.5136681 7,10.35 L9.79,7.55 C9.96196125,7.845268 10.0581556,8.1785127 10.07,8.52 Z M12.23,10.26 C11.0915521,11.3833166 9.5940615,12.070109 8,12.2 C7.2195986,12.1835786 6.45333149,11.9885909 5.76,11.63 L6.36,11 C7.54195668,11.73591 9.07490637,11.5618752 10.0618139,10.5797353 C11.0487214,9.59759547 11.2301777,8.06550653 10.5,6.88 L11.32,6.06 C11.6362641,6.28318843 11.9400534,6.52354917 12.23,6.78 C12.8246324,7.30972119 13.3701838,7.89208896 13.86,8.52 C13.3696905,9.14748892 12.824179,9.7298141 12.23,10.26 L12.23,10.26 Z M8,6.45 C8.14956285,6.43380461 8.30043715,6.43380461 8.45,6.45 L9.18,5.72 C8.04410063,5.2279449 6.72260758,5.4841064 5.85283358,6.36494622 C4.98305958,7.24578605 4.74362449,8.57041182 5.25,9.7 L6,9 C5.98307127,8.85047764 5.98307127,8.69952236 6,8.55 C5.98300858,7.42194432 6.87245729,6.48802318 8,6.45 Z" id="Shape"></path>
            </g>
        </g>
    </g>
</svg>