<?xml version="1.0" encoding="UTF-8"?>
<svg width="95px" height="71px" viewBox="0 0 95 71" version="1.1" xmlns="http://www.w3.org/2000/svg" xmlns:xlink="http://www.w3.org/1999/xlink">
    <!-- Generator: Sketch 54.1 (76490) - https://sketchapp.com -->
    <title>编组 27复制 2</title>
    <desc>Created with Sketch.</desc>
    <g id="页面1" stroke="none" stroke-width="1" fill="none" fill-rule="evenodd">
        <g id="编组-27复制-2">
            <text id="暂无数据复制-3" font-family="PingFangSC-Regular, PingFang SC" font-size="12" font-weight="normal" fill="#7F7C7C">
                <tspan x="23" y="69">暂无数据</tspan>
            </text>
            <path d="M36.9787886,16.4126984 L24.0072691,39.9619898 C34.2661479,40.0049256 39.3955873,39.8534989 39.3955873,39.5077098 C39.3955873,39.1619206 38.5899877,31.4635834 36.9787886,16.4126984 Z" id="路径-3" fill-opacity="0.298513986" fill="#D8D8D8"></path>
            <path d="M57.236925,25.7446269 L47.5772865,39.7649451 C55.3295565,39.9392441 59.2056915,39.8534989 59.2056915,39.5077098 C59.2056915,39.1619206 58.549436,34.5742263 57.236925,25.7446269 Z" id="路径-3复制" fill-opacity="0.298513986" fill="#D8D8D8"></path>
            <rect id="矩形" fill="#D8D8D8" x="34.388511" y="12.0164399" width="10.5510204" height="28"></rect>
            <rect id="矩形复制" fill="#D8D8D8" x="55.4905518" y="24.9121315" width="10.5510204" height="14.5369615"></rect>
            <path d="M22.1082955,39.9619898 L75.273715,39.9619898" id="直线-2" stroke="#C8C8C8" stroke-linecap="square"></path>
            <path d="M22.1082955,1.02579365 L22.1082955,39.5077098" id="直线-3" stroke="#C8C8C8" stroke-linecap="square"></path>
            <path d="M0.575847945,44.8698129 L93.6467122,44.8698129" id="直线-2复制" stroke="#D8D8D8" stroke-linecap="square"></path>
            <path d="M37.1314035,51.8327759 L57.2283529,51.8327759" id="直线-2复制-2" stroke="#D8D8D8" stroke-width="0.6" stroke-linecap="square"></path>
        </g>
    </g>
</svg>