<?xml version="1.0" encoding="UTF-8"?>
<svg width="19px" height="22px" viewBox="0 0 19 22" version="1.1" xmlns="http://www.w3.org/2000/svg" xmlns:xlink="http://www.w3.org/1999/xlink">
    <!-- Generator: Sketch 54.1 (76490) - https://sketchapp.com -->
    <title>合并形状 copy 10</title>
    <desc>Created with Sketch.</desc>
    <defs>
        <linearGradient x1="42.2540831%" y1="9.97447146%" x2="63.7062795%" y2="74.6919781%" id="linearGradient-1">
            <stop stop-color="#83E3D6" offset="0%"></stop>
            <stop stop-color="#43A08F" offset="100%"></stop>
        </linearGradient>
        <linearGradient x1="28.926023%" y1="8.45526146%" x2="60.9014766%" y2="74.4527655%" id="linearGradient-2">
            <stop stop-color="#83E3D6" offset="0%"></stop>
            <stop stop-color="#239480" offset="100%"></stop>
        </linearGradient>
        <path d="M33.4999508,333 C35.5040765,333 37.3895151,333.776752 38.8053186,335.183594 C41.7315605,338.090943 41.7315605,342.821316 38.8053186,345.728666 L33.4999508,351 L28.1946133,345.728666 C25.2684622,342.821316 25.2684622,338.090943 28.1946133,335.183594 C29.6105378,333.774408 31.4959765,333 33.4999508,333 Z M33.4999419,338 C32.8330913,338 32.2034735,338.260252 31.7318483,338.731848 C31.2601359,339.203444 31,339.833207 31,340.499942 C31,341.169174 31.2601359,341.796439 31.7318483,342.268152 C32.2034735,342.739748 32.8330913,343 33.4999419,343 C34.1690579,343 34.7964394,342.739748 35.2680355,342.268152 C35.7397479,341.796439 36,341.166793 36,340.499942 C36,339.830826 35.7397479,339.203444 35.2680355,338.731848 C34.7964394,338.260252 34.1667925,338 33.4999419,338 Z" id="path-3"></path>
        <filter x="-24.7%" y="-15.0%" width="149.3%" height="141.6%" filterUnits="objectBoundingBox" id="filter-4">
            <feMorphology radius="0.2" operator="dilate" in="SourceAlpha" result="shadowSpreadOuter1"></feMorphology>
            <feOffset dx="0" dy="1" in="shadowSpreadOuter1" result="shadowOffsetOuter1"></feOffset>
            <feGaussianBlur stdDeviation="1" in="shadowOffsetOuter1" result="shadowBlurOuter1"></feGaussianBlur>
            <feComposite in="shadowBlurOuter1" in2="SourceAlpha" operator="out" result="shadowBlurOuter1"></feComposite>
            <feColorMatrix values="0 0 0 0 0.0596680146   0 0 0 0 0.275673687   0 0 0 0 0.236188779  0 0 0 0.499453671 0" type="matrix" in="shadowBlurOuter1"></feColorMatrix>
        </filter>
    </defs>
    <g id="Page-1" stroke="none" stroke-width="1" fill="none" fill-rule="evenodd">
        <g id="坐标图1-copy" transform="translate(-24.000000, -332.000000)">
            <g id="合并形状-copy-10">
                <use fill="black" fill-opacity="1" filter="url(#filter-4)" xlink:href="#path-3"></use>
                <use stroke="url(#linearGradient-2)" stroke-width="0.4" fill="url(#linearGradient-1)" fill-rule="evenodd" xlink:href="#path-3"></use>
            </g>
        </g>
    </g>
</svg>