<?xml version="1.0" encoding="UTF-8"?>
<svg width="14px" height="10px" viewBox="0 0 14 10" version="1.1" xmlns="http://www.w3.org/2000/svg" xmlns:xlink="http://www.w3.org/1999/xlink">
    <!-- Generator: Sketch 54.1 (76490) - https://sketchapp.com -->
    <title>显示</title>
    <desc>Created with Sketch.</desc>
    <g id="页面2" stroke="none" stroke-width="1" fill="none" fill-rule="evenodd">
        <g id="气泡图-热力图-坐标图效果复制-2" transform="translate(-253.000000, -226.000000)" fill="#666666" fill-rule="nonzero">
            <g id="显示" transform="translate(252.000000, 223.000000)">
                <path d="M8,5.5 C6.97958623,5.47967631 6.04846937,6.07925098 5.64474415,7.01662137 C5.24101893,7.95399177 5.44508365,9.04248889 6.16092493,9.76996987 C6.87676621,10.4974508 7.96183061,10.7190443 8.90559036,10.3304895 C9.84935011,9.94193466 10.4638638,9.02060883 10.46,8 C10.4655909,6.6325482 9.36736411,5.51646403 8,5.5 L8,5.5 Z M8,9.64 C7.35274341,9.66036397 6.75780415,9.28615042 6.49587152,8.69391137 C6.23393889,8.10167233 6.35735235,7.4097492 6.80788607,6.94458776 C7.25841978,6.47942633 7.94604796,6.33397531 8.54635114,6.57685774 C9.14665432,6.81974018 9.53967973,7.40242322 9.54,8.05 C9.53018667,8.9047934 8.85404381,9.60288895 8,9.64 Z" id="Shape"></path>
                <path d="M8,3.78 C4.34,3.78 1.81,7 1.11,8 C0.984975728,8.1694328 0.984975728,8.4005672 1.11,8.57 C1.88,9.57 4.65,12.69 7.98,12.69 C11.31,12.69 14.09,9.52 14.85,8.56 C14.9733444,8.393709 14.9733444,8.166291 14.85,8 C14.19,7 11.67,3.78 8,3.78 Z M12.38,9.84 C11.1921775,11.0122311 9.62463569,11.7215261 7.96,11.84 C6.29018577,11.7422525 4.71567162,11.0298027 3.54,9.84 C3.06,9.41 2,8.28 2,8.26 C2.43416696,7.69908105 2.90167771,7.16478305 3.4,6.66 C4.61592282,5.42198385 6.26531269,4.70485783 8,4.66 C9.71675931,4.71967734 11.3452515,5.43549808 12.55,6.66 C13.0531113,7.16964991 13.5271917,7.70716357 13.97,8.27 C13.4704718,8.82670675 12.936061,9.35109739 12.37,9.84 L12.38,9.84 Z" id="Shape"></path>
            </g>
        </g>
    </g>
</svg>