<?xml version="1.0" encoding="UTF-8"?>
<svg width="16px" height="17px" viewBox="0 0 16 17" version="1.1" xmlns="http://www.w3.org/2000/svg" xmlns:xlink="http://www.w3.org/1999/xlink">
    <!-- Generator: Sketch 54.1 (76490) - https://sketchapp.com -->
    <title>放大</title>
    <desc>Created with Sketch.</desc>
    <defs>
        <polygon id="path-1" points="0.00120754717 0.0167044025 15.9967748 0.0167044025 15.9967748 16.5031212 0.00120754717 16.5031212"></polygon>
    </defs>
    <g id="数字政府" stroke="none" stroke-width="1" fill="none" fill-rule="evenodd">
        <g id="企业分布-方案一" transform="translate(-236.000000, -262.000000)">
            <g id="放大" transform="translate(236.000000, 262.000000)">
                <g id="分组">
                    <mask id="mask-2" fill="white">
                        <use xlink:href="#path-1"></use>
                    </mask>
                    <g id="Clip-2"></g>
                    <path d="M1.1128956,7.24264654 C1.1128956,3.87425409 3.84513208,1.13414843 7.20392453,1.13414843 C10.5622541,1.13414843 13.2949736,3.87425409 13.2949736,7.24264654 C13.2949736,10.6109585 10.5622541,13.3510642 7.20392453,13.3510642 C3.84513208,13.3497157 1.1128956,10.6091472 1.1128956,7.24264654 M15.8266566,15.5442918 L12.4010264,12.2308629 C13.6402516,10.9329711 14.4073862,9.17613082 14.4073862,7.24264654 C14.4078692,3.25782138 11.1759497,0.0167044025 7.20392453,0.0167044025 C3.23238239,0.0167044025 0,3.25782138 0,7.24264654 C0,11.2274717 3.2319195,14.4671799 7.20392453,14.4671799 C8.84622893,14.4671799 10.3570717,13.906556 11.5688654,12.9759799 L15.0544906,16.3475925 C15.1604528,16.4498717 15.3027421,16.5057811 15.4500025,16.5030239 C15.5972428,16.5002667 15.7374189,16.4391044 15.8394566,16.3329006 C15.9425409,16.2267572 15.9991346,16.0839245 15.9966994,15.9359597 C15.9943447,15.7880151 15.9331019,15.6470541 15.8266566,15.5442918" id="Fill-1" fill="#666666" mask="url(#mask-2)"></path>
                </g>
            </g>
        </g>
    </g>
</svg>