<?xml version="1.0" encoding="UTF-8"?>
<svg width="18px" height="18px" viewBox="0 0 18 18" version="1.1" xmlns="http://www.w3.org/2000/svg" xmlns:xlink="http://www.w3.org/1999/xlink">
    <title>QuestionCircle</title>
    <g id="页面-1" stroke="none" stroke-width="1" fill="none" fill-rule="evenodd">
        <g id="画板" transform="translate(-79.000000, -61.000000)">
            <g id="编组-108" transform="translate(79.000000, 61.000000)">
                <rect id="矩形" x="0" y="0" width="18" height="18"></rect>
                <path d="M9.1,17.2 C4.62649353,17.2 1,13.5735065 1,9.1 C1,4.62649353 4.62649353,1 9.1,1 C13.5735065,1 17.2,4.62649353 17.2,9.1 C17.2,13.5735065 13.5735065,17.2 9.1,17.2 Z M9.1,16 C12.9107648,16 16,12.9107648 16,9.1 C16,5.28923523 12.9107648,2.2 9.1,2.2 C5.28923523,2.2 2.2,5.28923523 2.2,9.1 C2.2,12.9107648 5.28923523,16 9.1,16 Z M9.1,13.9 C8.63055796,13.9 8.25,13.519442 8.25,13.05 C8.25,12.580558 8.63055796,12.2 9.1,12.2 C9.56944204,12.2 9.95,12.580558 9.95,13.05 C9.95,13.519442 9.56944204,13.9 9.1,13.9 Z M9.70439773,11 C9.70439773,11.1104569 9.61485468,11.2 9.50440883,11.2 L8.70421999,11.2000888 C8.59370878,11.1999905 8.50421091,11.1102784 8.50448665,10.9999112 L8.50456878,10.9372296 C8.51569629,10.4713119 8.6510793,10.029696 8.90675507,9.62313518 C9.01534386,9.45046356 9.16427047,9.29093099 9.38020032,9.11023896 C9.44954358,9.05132395 9.56141045,8.96403524 9.90280645,8.70972148 C10.2615335,8.44249744 10.4322371,8.28930435 10.5335872,8.14385119 C10.7150619,7.88340683 10.8116723,7.5764611 10.8116723,7.25583616 C10.8116723,6.39657157 10.1151007,5.7 9.25583616,5.7 C8.39657157,5.7 7.7,6.39657157 7.7,7.25583616 L7.7,7.46381275 C7.7,7.5742697 7.61045695,7.66381275 7.5,7.66381275 L6.7,7.66381275 C6.58954305,7.66381275 6.5,7.5742697 6.5,7.46381275 L6.5,7.25583616 C6.5,5.73382987 7.73382987,4.5 9.25583616,4.5 C10.7778424,4.5 12.0116723,5.73382987 12.0116723,7.25583616 C12.0116723,7.82228966 11.8396172,8.36852494 11.5181486,8.82988238 C11.3269381,9.10429927 11.0979693,9.31576963 10.6196758,9.67206154 C10.295249,9.91373452 10.2074475,9.98196252 10.1503077,10.0305295 C10.0336201,10.1281747 9.95713569,10.2070135 9.92258015,10.2619618 C9.78241578,10.484843 9.710189,10.7158547 9.70439773,10.9515553 L9.70439773,11 Z" id="QuestionCircle备份-2" fill="#666666" fill-rule="nonzero"></path>
            </g>
        </g>
    </g>
</svg>