<?xml version="1.0" encoding="UTF-8"?>
<svg width="7px" height="8px" viewBox="0 0 7 8" version="1.1" xmlns="http://www.w3.org/2000/svg" xmlns:xlink="http://www.w3.org/1999/xlink">
    <title>Shape 红</title>
    <g id="页面1" stroke="none" stroke-width="1" fill="none" fill-rule="evenodd">
        <g id="01董办-舆情宝" transform="translate(-1329.000000, -1394.000000)" fill="#CB0000" fill-rule="nonzero">
            <path d="M1332.37879,1394.05185 L1329.04902,1397.53012 C1329.00028,1397.57981 1328.98645,1397.65405 1329.01402,1397.71796 C1329.04159,1397.78187 1329.10508,1397.82275 1329.17467,1397.82141 L1331.10514,1397.82141 L1331.10514,1401.2083 C1331.10514,1401.30293 1331.18185,1401.37964 1331.27648,1401.37964 L1333.64674,1401.37964 C1333.78237,1401.37964 1333.89233,1401.26969 1333.89233,1401.13405 L1333.89233,1397.83854 L1335.8228,1397.83854 C1335.89762,1397.84109 1335.96543,1397.79478 1335.99028,1397.72417 C1336.01512,1397.65355 1335.99125,1397.57498 1335.93132,1397.53012 L1332.62439,1394.05185 C1332.59213,1394.0187 1332.54784,1394 1332.50159,1394 C1332.45534,1394 1332.41105,1394.0187 1332.37879,1394.05185 Z" id="Shape-红"></path>
        </g>
    </g>
</svg>